<?xml version="1.0" encoding="UTF-8"?><svg id="Layer_1" xmlns="http://www.w3.org/2000/svg" viewBox="0 0 16 16"><defs><style>.cls-1{fill:#f9f7f7;}.cls-2{fill:#101729;}</style></defs><rect class="cls-1" width="16" height="16"/><path class="cls-2" d="M12.57,3.52H1.81l-.06,.34h.69c.73,0,.97,.26,.89,.7l-1.21,6.87c-.09,.45-.45,.7-1.13,.7H.29l-.07,.34H4.81l.06-.34h-1.15c-.71,0-.96-.22-.89-.7l.59-3.32h2.04c.78,0,1.02,.48,.89,1.45l-.06,.39h.28l.71-4.01h-.28l-.06,.4c-.17,.91-.62,1.45-1.41,1.45H3.49l.57-3.21c.07-.46,.44-.7,1.12-.7h4.28c.74,0,.98,.26,.9,.7l-1.22,6.87c-.07,.46-.44,.7-1.13,.7h-.69l-.06,.34h4.36l.06-.34h-.92c-.71,0-.95-.24-.88-.7l.55-3.12h1.52c2.41,0,3.83-1.16,3.83-2.77,0-1.38-1.25-2.02-3.21-2.02Zm-.91,4.45h-1.17l.61-3.42c.07-.46,.43-.7,1.12-.7h.16c1.45,0,2.43,.51,2.43,1.7,0,1.58-1.16,2.41-3.16,2.41Z"/></svg>